. 
  
http://www.torrentday.com/        :     The Hottest Private Tracker On The Net!!!
 
http://www.torrentday.com          :     Once & For all ;)


               www . TorrentDay . Com 

(((((((((((((= Enjoy No RAR releases =))))))))))))))))))))


...................................NFO:....................................

.[img]http://img684.imageshack.us/img684/8555/trolli.jpg[/img]

The Trollhunter 2010 Nordish READNFO BDRip XVID AC3 HQ Hive-CM8


[b]Thx Hive

CM8 Doing It Right The First Time :D

Why download a touched up rip of a rip BRrip
Get the real deal BDRip
Enjoy

Video: 720x400 @bitrate 1700
Audio: Nordish Ac3 5.1 @384
Subs: yes english hardcoded
thx to "indy99" for supplying


READNFO:
this is norway suspense movie in the style of blair witch project with eng subs now. YES language is NORWAY.
Its about the real existence of trolls in norway. all live hd-camera footage which the norway government wants to hide from the rest of the world.
I really liked the movie. The first 25mins are introduction of the cast and than it gets into suspense in the woods of norway.
since everyone speaks about the movie, i decided to watch it first before releasing it. The norway language with subs didnt bother me since you can follow and the scenes and huntings are self explaining.
Hell it looks like that trolls are really existing!

Original Title of the Movie is "Trolljegeren"[/b]
 
http://www.imdb.com/title/tt1740707/


General
Complete name                    : The.Trollhunter.2010.Nordish.READNFO.BDRip.XVID.AC3.HQ.Hive-CM8.avi
Format                           : AVI
Format/Info                      : Audio Video Interleave
File size                        : 1.45 GiB
Duration                         : 1h 39mn
Overall bit rate                 : 2 094 Kbps
Writing application              : Nandub v1.0rc2
Writing library                  : Nandub build 1853/release

Video
ID                               : 0
Format                           : MPEG-4 Visual
Format profile                   : Advanced Simple@L5
Format settings, BVOP            : Yes
Format settings, QPel            : Yes
Format settings, GMC             : No warppoints
Format settings, Matrix          : Default (H.263)
Muxing mode                      : Packed bitstream
Codec ID                         : XVID
Codec ID/Hint                    : XviD
Duration                         : 1h 39mn
Bit rate                         : 1 700 Kbps
Width                            : 720 pixels
Height                           : 400 pixels
Display aspect ratio             : 16:9
Frame rate                       : 25.000 fps
Color space                      : YUV
Chroma subsampling               : 4:2:0
Bit depth                        : 8 bits
Scan type                        : Progressive
Bits/(Pixel*Frame)               : 0.236
Stream size                      : 1.18 GiB (81%)
Writing library                  : XviD 1.2.1 (UTC 2008-12-04)

Audio
ID                               : 1
Format                           : AC-3
Format/Info                      : Audio Coding 3
Mode extension                   : CM (complete main)
Codec ID                         : 2000
Duration                         : 1h 39mn
Bit rate mode                    : Constant
Bit rate                         : 384 Kbps
Channel(s)                       : 6 channels
Channel positions                : Front: L C R, Side: L R, LFE
Sampling rate                    : 48.0 KHz
Bit depth                        : 16 bits
Stream size                      : 272 MiB (18%)
Alignment                        : Split accross interleaves
Interleave, duration             : 40 ms (1.00 video frame)
Interleave, preload duration     : 500 ms
 


A group of students investigates a series of mysterious bear killings, but learns that there are much more dangerous things going on. They start to follow a mysterious hunter, learning that he is actually a troll hunter. 



[img]http://img695.imageshack.us/img695/5043/48095541.png[/img]
[img]http://img842.imageshack.us/img842/4235/trtrtrtrr.png[/img]
[img]http://img232.imageshack.us/img232/5631/trtrtrtrtrr.png[/img]
[img]http://img220.imageshack.us/img220/8720/ttrr.png[/img]
[img]http://img228.imageshack.us/img228/6143/ttrtrr.png[/img]
[img]http://img683.imageshack.us/img683/999/ttrtrtrr.png[/img]





Greetz

iNK,LUSi,,MAGNET,CLASSiFiED,THC,LEGi0N,T0XiC,IMAGiNE,ViSiON,WBZ,FLAWL3SS,NOVA
Vik,Rapeseed,D2U,SAFC,goldadvance,MEMORY100,KaN1vE,Unevano,Pinnz,Wayne,Mr Hive
and all P2P groups 
Great Work Guys :D